<?xml version="1.0" standalone="no"?><!DOCTYPE svg PUBLIC "-//W3C//DTD SVG 1.1//EN" "http://www.w3.org/Graphics/SVG/1.1/DTD/svg11.dtd"><svg t="1613742753192" class="icon" viewBox="0 0 1024 1024" version="1.1" xmlns="http://www.w3.org/2000/svg" p-id="3112" xmlns:xlink="http://www.w3.org/1999/xlink" width="32" height="32"><defs><style type="text/css"></style></defs><path d="M880.327111 421.973333v433.123556c0 61.752889-49.948444 112.014222-111.303111 112.014222h-77.027556c-61.354667 0-111.303111-50.261333-111.303111-112.014222V733.582222a27.192889 27.192889 0 0 0-26.652444-26.851555H477.013333a26.823111 26.823111 0 0 0-26.652444 26.851555v121.514667c0 61.752889-49.948444 112.014222-111.303111 112.014222H256.256c-61.354667 0-111.303111-50.261333-111.303111-112.014222V421.148444l-75.036445 64.853334a42.097778 42.097778 0 0 1-59.676444-4.551111 42.723556 42.723556 0 0 1 4.522667-60.074667L430.734222 61.923556c0.284444-0.284444 1.137778-0.995556 1.422222-1.422223a115.484444 115.484444 0 0 1 159.687112 0l1.422222 1.422223L1009.208889 421.376c17.777778 15.36 19.768889 42.183111 4.522667 60.046222a41.870222 41.870222 0 0 1-59.392 4.551111l-74.040889-64z" p-id="3113"></path></svg>