<?xml version="1.0" standalone="no"?><!DOCTYPE svg PUBLIC "-//W3C//DTD SVG 1.1//EN" "http://www.w3.org/Graphics/SVG/1.1/DTD/svg11.dtd"><svg t="1613742891073" class="icon" viewBox="0 0 1024 1024" version="1.1" xmlns="http://www.w3.org/2000/svg" p-id="3546" xmlns:xlink="http://www.w3.org/1999/xlink" width="32" height="32"><defs><style type="text/css"></style></defs><path d="M512 86.528c94.264889 0 170.666667 77.482667 170.666667 173.084444 0 95.573333-76.401778 173.056-170.666667 173.056s-170.666667-77.482667-170.666667-173.056c0-95.573333 76.401778-173.084444 170.666667-173.084444zM512 0c-141.368889 0-256 116.224-256 259.612444 0 143.36 114.631111 259.612444 256 259.612445s256-116.252444 256-259.612445c0-68.835556-26.965333-134.883556-74.979556-183.580444A254.208 254.208 0 0 0 512 0z m341.333333 677.859556c47.132444 0 85.333333 38.741333 85.333334 86.528v173.084444H85.333333v-173.084444c0-47.786667 38.200889-86.528 85.333334-86.528h682.666666z m0-86.528H170.666667c-94.264889 0-170.666667 77.482667-170.666667 173.056v201.927111C0 998.172444 25.457778 1024 56.888889 1024h910.222222c31.431111 0 56.888889-25.827556 56.888889-57.685333v-201.927111c0-95.573333-76.401778-173.056-170.666667-173.056z" p-id="3547"></path></svg>